control3min_grf.mot
version=1
nRows=10
nColumns 19
inDegrees=yes
endheader
time	1_ground_force_vx	1_ground_force_vy	1_ground_force_vz	1_ground_force_px	1_ground_force_py	1_ground_force_pz	1_ground_torque_x	1_ground_torque_y	1_ground_torque_z	2_ground_force_vx	2_ground_force_vy	2_ground_force_vz	2_ground_force_px	2_ground_force_py	2_ground_force_pz	2_ground_torque_x	2_ground_torque_y	2_ground_torque_z
            1.253500	            0.503726	            4.866681	            0.157186	           -0.233013	            0.005581	           -0.255695	            0.498286	           -0.296019	            0.150409	            0.039881	            1.665538	           -2.246655	           -0.232311	            0.006130	           -0.833667	           -0.281692	           -0.047609	           -0.188551
            1.254000	            0.046369	            5.225158	            0.618429	           -0.233013	            0.005581	           -0.255695	            0.459427	           -0.184897	            0.037432	            0.456940	            2.955596	           -2.101451	           -0.232311	            0.006130	           -0.833667	           -0.244104	           -0.056791	           -0.226301
            1.254500	           -0.090690	            5.764945	            0.850369	           -0.233013	            0.005581	           -0.255695	            0.412008	           -0.093011	            0.144849	            0.743980	            1.299611	           -2.201340	           -0.232311	            0.006130	           -0.833667	           -0.131468	           -0.037412	           -0.245132
            1.255000	           -0.182148	            5.764534	            0.942308	           -0.233013	            0.005581	           -0.255695	            0.389367	           -0.120865	            0.159674	            0.884653	            1.299114	           -1.919831	           -0.232311	            0.006130	           -0.833667	           -0.281795	           -0.019251	           -0.188450
            1.255500	            0.137905	            6.667104	            0.670241	           -0.233013	            0.005581	           -0.255695	            0.625570	           -0.295823	            0.059200	            0.645024	            2.771957	           -2.055260	           -0.232311	            0.006130	           -0.833667	           -0.187893	           -0.018710	           -0.245040
            1.256000	            0.366748	            5.586537	            0.435755	           -0.233013	            0.005581	           -0.255695	            0.579767	           -0.388169	            0.068730	            0.321001	            1.666385	           -2.199847	           -0.232311	            0.006130	           -0.833667	           -0.244198	           -0.028500	           -0.207350
            1.256500	            0.457572	            5.948463	            0.116082	           -0.233013	            0.005581	           -0.255695	            0.555738	           -0.406710	            0.091405	            0.318822	            2.220337	           -2.620229	           -0.232311	            0.006130	           -0.833667	           -0.281454	           -0.113777	           -0.188787
            1.257000	            0.778311	            5.588386	            0.022028	           -0.233013	            0.005581	           -0.255695	            0.541260	           -0.286646	            0.162046	            0.318199	            2.404150	           -2.525715	           -0.232311	            0.006130	           -0.833667	           -0.319160	           -0.085286	           -0.264071
            1.257500	            0.549485	            5.948087	            0.207566	           -0.233013	            0.005581	           -0.255695	            0.608106	           -0.147839	            0.096294	            0.223088	            2.772778	           -2.712074	           -0.232311	            0.006130	           -0.833667	           -0.206517	           -0.056790	           -0.188617
            1.258000	           -0.091325	            6.126459	            0.622635	           -0.233013	            0.005581	           -0.255695	            0.533952	           -0.092593	            0.050544	            0.743233	            1.484429	           -2.388396	           -0.232311	            0.006130	           -0.833667	           -0.262881	           -0.056926	           -0.207443
